<?xml version="1.0" encoding="utf-8"?>
<!-- Generator: Adobe Illustrator 22.1.0, SVG Export Plug-In . SVG Version: 6.00 Build 0)  -->
<svg version="1.1" xmlns="http://www.w3.org/2000/svg" xmlns:xlink="http://www.w3.org/1999/xlink" x="0px" y="0px"
	 viewBox="0 0 414.8 291" style="enable-background:new 0 0 414.8 291;" xml:space="preserve">
<style type="text/css">
	.st0{display:none;}
	.st1{fill-rule:evenodd;clip-rule:evenodd;fill:#000404;stroke:#000000;stroke-width:0.25;stroke-miterlimit:10;}
	.st2{fill-rule:evenodd;clip-rule:evenodd;fill:#D1CCE5;stroke:#000000;stroke-width:0.25;stroke-miterlimit:10;}
	.st3{fill-rule:evenodd;clip-rule:evenodd;fill:#E2E4E8;stroke:#000000;stroke-width:0.25;stroke-miterlimit:10;}
	.st4{fill-rule:evenodd;clip-rule:evenodd;fill:#EEEEEF;stroke:#000000;stroke-width:0.25;stroke-miterlimit:10;}
	.st5{fill-rule:evenodd;clip-rule:evenodd;fill:#00A195;stroke:#000000;stroke-width:0.25;stroke-miterlimit:10;}
	.st6{fill-rule:evenodd;clip-rule:evenodd;fill:#535671;stroke:#000000;stroke-width:0.25;stroke-miterlimit:10;}
	.st7{fill-rule:evenodd;clip-rule:evenodd;fill:#66646D;stroke:#000000;stroke-width:0.25;stroke-miterlimit:10;}
	.st8{fill-rule:evenodd;clip-rule:evenodd;fill:#3E3A39;stroke:#000000;stroke-width:0.25;stroke-miterlimit:10;}
	.st9{fill-rule:evenodd;clip-rule:evenodd;fill:#FFFFFF;stroke:#000000;stroke-width:0.25;stroke-miterlimit:10;}
	.st10{fill-rule:evenodd;clip-rule:evenodd;fill:#17ACB3;stroke:#000000;stroke-width:0.25;stroke-miterlimit:10;}
	.st11{fill-rule:evenodd;clip-rule:evenodd;fill:#E7E5E4;stroke:#000000;stroke-width:0.25;stroke-miterlimit:10;}
	.st12{fill-rule:evenodd;clip-rule:evenodd;fill:#55BECE;stroke:#000000;stroke-width:0.25;stroke-miterlimit:10;}
	.st13{fill-rule:evenodd;clip-rule:evenodd;fill:#FFF57F;stroke:#000000;stroke-width:0.25;stroke-miterlimit:10;}
	.st14{fill-rule:evenodd;clip-rule:evenodd;fill:#F29E7D;stroke:#000000;stroke-width:0.25;stroke-miterlimit:10;}
	.st15{fill-rule:evenodd;clip-rule:evenodd;fill:#F7BE7E;stroke:#000000;stroke-width:0.25;stroke-miterlimit:10;}
	.st16{fill-rule:evenodd;clip-rule:evenodd;fill:#82CEED;stroke:#000000;stroke-width:0.25;stroke-miterlimit:10;}
	.st17{fill-rule:evenodd;clip-rule:evenodd;fill:#C6C7C8;stroke:#000000;stroke-width:0.25;stroke-miterlimit:10;}
	.st18{fill-rule:evenodd;clip-rule:evenodd;fill:#C42F41;stroke:#000000;stroke-width:0.25;stroke-miterlimit:10;}
	.st19{fill-rule:evenodd;clip-rule:evenodd;fill:#B51D23;stroke:#000000;stroke-width:0.25;stroke-miterlimit:10;}
	.st20{fill-rule:evenodd;clip-rule:evenodd;fill:#80191E;stroke:#000000;stroke-width:0.25;stroke-miterlimit:10;}
	.st21{fill-rule:evenodd;clip-rule:evenodd;fill:#2D0304;stroke:#000000;stroke-width:0.25;stroke-miterlimit:10;}
	.st22{fill-rule:evenodd;clip-rule:evenodd;fill:#F3ACA9;stroke:#000000;stroke-width:0.25;stroke-miterlimit:10;}
	.st23{fill-rule:evenodd;clip-rule:evenodd;fill:#ED807B;stroke:#000000;stroke-width:0.25;stroke-miterlimit:10;}
	.st24{fill-rule:evenodd;clip-rule:evenodd;fill:#E9574E;stroke:#000000;stroke-width:0.25;stroke-miterlimit:10;}
	.st25{fill-rule:evenodd;clip-rule:evenodd;fill:#E62C10;stroke:#000000;stroke-width:0.25;stroke-miterlimit:10;}
	.st26{fill-rule:evenodd;clip-rule:evenodd;fill:#F9D19E;stroke:#000000;stroke-width:0.25;stroke-miterlimit:10;}
	.st27{fill-rule:evenodd;clip-rule:evenodd;fill:#F7B96B;stroke:#000000;stroke-width:0.25;stroke-miterlimit:10;}
	.st28{fill-rule:evenodd;clip-rule:evenodd;fill:#F4A236;stroke:#000000;stroke-width:0.25;stroke-miterlimit:10;}
	.st29{fill-rule:evenodd;clip-rule:evenodd;fill:#F08D00;stroke:#000000;stroke-width:0.25;stroke-miterlimit:10;}
	.st30{fill-rule:evenodd;clip-rule:evenodd;fill:#90D0D0;stroke:#000000;stroke-width:0.25;stroke-miterlimit:10;}
	.st31{fill-rule:evenodd;clip-rule:evenodd;fill:#5CBFB9;stroke:#000000;stroke-width:0.25;stroke-miterlimit:10;}
	.st32{fill-rule:evenodd;clip-rule:evenodd;fill:#00AFAA;stroke:#000000;stroke-width:0.25;stroke-miterlimit:10;}
	.st33{fill-rule:evenodd;clip-rule:evenodd;fill:#9CC3E1;stroke:#000000;stroke-width:0.25;stroke-miterlimit:10;}
	.st34{fill-rule:evenodd;clip-rule:evenodd;fill:#6CA4D2;stroke:#000000;stroke-width:0.25;stroke-miterlimit:10;}
	.st35{fill-rule:evenodd;clip-rule:evenodd;fill:#2985C2;stroke:#000000;stroke-width:0.25;stroke-miterlimit:10;}
	.st36{fill-rule:evenodd;clip-rule:evenodd;fill:#0069B4;stroke:#000000;stroke-width:0.25;stroke-miterlimit:10;}
	.st37{fill-rule:evenodd;clip-rule:evenodd;fill:#505054;stroke:#000000;stroke-width:0.25;stroke-miterlimit:10;}
	.st38{fill-rule:evenodd;clip-rule:evenodd;fill:#B9BABC;stroke:#000000;stroke-width:0.25;stroke-miterlimit:10;}
	.st39{fill-rule:evenodd;clip-rule:evenodd;fill:#F9C140;stroke:#000000;stroke-width:0.25;stroke-miterlimit:10;}
	.st40{fill-rule:evenodd;clip-rule:evenodd;fill:#FBD06D;stroke:#000000;stroke-width:0.25;stroke-miterlimit:10;}
	.st41{fill-rule:evenodd;clip-rule:evenodd;fill:#D7A230;stroke:#000000;stroke-width:0.25;stroke-miterlimit:10;}
	.st42{fill-rule:evenodd;clip-rule:evenodd;fill:#C6880B;stroke:#000000;stroke-width:0.25;stroke-miterlimit:10;}
	.st43{fill-rule:evenodd;clip-rule:evenodd;fill:#FFEEC9;stroke:#000000;stroke-width:0.25;stroke-miterlimit:10;}
	.st44{fill-rule:evenodd;clip-rule:evenodd;fill:#464442;stroke:#000000;stroke-width:0.25;stroke-miterlimit:10;}
	.st45{fill-rule:evenodd;clip-rule:evenodd;fill:#796BAE;stroke:#000000;stroke-width:0.25;stroke-miterlimit:10;}
	.st46{fill-rule:evenodd;clip-rule:evenodd;fill:#EDDFC9;stroke:#000000;stroke-width:0.25;stroke-miterlimit:10;}
</style>
<g id="BACKGROUND" class="st0">
</g>
<g id="OBJECTS">
	<g>
		<path class="st1" d="M340,269.7c0,7.9-6.4,14.3-14.3,14.3H85.4c-7.9,0-14.3-6.4-14.3-14.3V110.3c0-7.9,6.4-14.3,14.3-14.3h240.3
			c7.9,0,14.3,6.4,14.3,14.3V269.7z"/>
		<path class="st2" d="M38.3,268.6v3.5c0,7.6,8,13.7,17.8,13.7H355c9.8,0,17.8-6.1,17.8-13.7v-3.5H38.3z"/>
		<polygon class="st3" points="81.6,108 81.6,253.9 328.2,253.9 328.2,120.2 81.6,120.2 		"/>
		<rect x="256.1" y="133.4" class="st4" width="66.7" height="89"/>
		<rect x="81.6" y="108" class="st5" width="246.6" height="12.2"/>
		<rect x="96.5" y="108" class="st4" width="151.6" height="138.3"/>
		<path class="st6" d="M56,290.9L56,290.9L56,290.9L56,290.9L56,290.9L56,290.9z"/>
		<path class="st7" d="M371.1,277.9H40c2.8,4.6,8.9,7.8,16,7.9h0c0,0,0.1,0,0.1,0H355c0,0,0,0,0,0c0,0,0,0,0.1,0c0,0,0,0,0,0
			c0,0,0,0,0,0c0,0,0,0,0.1,0c0,0,0,0,0,0c0,0,0,0,0,0c0,0,0,0,0,0c3,0,5.7-0.6,8.2-1.7c0,0,0,0,0,0c0,0,0,0,0,0c0,0,0,0,0,0
			c0,0,0.1,0,0.1,0c0,0,0,0,0,0c0,0,0,0,0,0c0,0,0,0,0,0c0,0,0,0,0,0c0,0,0,0,0.1,0c0,0,0,0,0,0c0,0,0,0,0.1,0c0,0,0,0,0,0
			C367,282.6,369.6,280.5,371.1,277.9z"/>
		<rect x="252.3" y="130.9" class="st8" width="67" height="88"/>
		<g id="code">
			<rect id="code76" x="259" y="140.1" class="st9" width="16.8" height="1.1"/>
			<rect id="code75" x="259" y="142.6" class="st9" width="8.9" height="1.1"/>
			<rect id="code74" x="259" y="145.2" class="st9" width="14.3" height="1.1"/>
			<rect id="code73" x="265.6" y="150.4" class="st9" width="8.3" height="1.1"/>
			<rect id="code72" x="271.4" y="153" class="st9" width="8.1" height="1.1"/>
			<rect id="code71" x="270.8" y="142.6" class="st9" width="15.1" height="1.1"/>
			<rect id="code70" x="288.1" y="142.6" class="st9" width="7.2" height="1.1"/>
			<rect id="code69" x="298.1" y="142.6" class="st9" width="9.8" height="1.1"/>
			<rect id="code68" x="275.7" y="145.2" class="st9" width="8.5" height="1.1"/>
			<polygon id="code67" class="st9" points="274,147.8 272.4,147.8 265.6,147.8 265.6,148.9 272.4,148.9 274,148.9 281.4,148.9 
				281.4,147.8 			"/>
			<rect id="code66" x="276.5" y="150.4" class="st9" width="8.3" height="1.1"/>
			<rect id="code65" x="283.7" y="147.8" class="st9" width="9.3" height="1.1"/>
			<rect id="code64" x="294.9" y="147.8" class="st9" width="4.9" height="1.1"/>
			<rect id="code63" x="301.8" y="147.8" class="st9" width="6" height="1.1"/>
			<rect id="code62" x="286.7" y="150.4" class="st9" width="10.5" height="1.1"/>
			<rect id="code61" x="298.9" y="150.4" class="st9" width="3.2" height="1.1"/>
			<rect id="code60" x="281.9" y="153" class="st9" width="6" height="1.1"/>
			<rect id="code59" x="265.6" y="158.2" class="st9" width="8.3" height="1.1"/>
			<rect id="code58" x="265.6" y="160.8" class="st9" width="8.3" height="1.1"/>
			<rect id="code57" x="276.5" y="160.8" class="st9" width="7.5" height="1.1"/>
			<polygon id="code56" class="st9" points="284.9,158.2 283.7,158.2 276.5,158.2 276.5,159.3 283.7,159.3 284.9,159.3 290.9,159.3 
				290.9,158.2 			"/>
			<rect id="code55" x="292.3" y="158.2" class="st9" width="3.7" height="1.1"/>
			<rect id="code54" x="297.7" y="158.2" class="st9" width="4.6" height="1.1"/>
			<rect id="code53" x="291.4" y="160.8" class="st9" width="8.4" height="1.1"/>
			<rect id="code52" x="265.6" y="163.4" class="st9" width="8.3" height="1.1"/>
			<rect id="code51" x="265.6" y="166" class="st9" width="8.3" height="1.1"/>
			<rect id="code50" x="276.5" y="163.4" class="st9" width="4.9" height="1.1"/>
			<rect id="code49" x="276.5" y="166" class="st9" width="15.3" height="1.1"/>
			<polygon id="code48" class="st9" points="293,163.4 289.2,163.4 283.7,163.4 283.7,164.5 289.2,164.5 293,164.5 299.7,164.5 
				299.7,163.4 			"/>
			<rect id="code47" x="301.8" y="163.4" class="st9" width="6" height="1.1"/>
			<rect id="code46" x="293.7" y="166" class="st9" width="8.6" height="1.1"/>
			<rect id="code45" x="285.7" y="160.8" class="st9" width="3.6" height="1.1"/>
			<rect id="code44" x="259" y="171.2" class="st9" width="8.9" height="1.1"/>
			<rect id="code43" x="259" y="173.8" class="st9" width="14.3" height="1.1"/>
			<rect id="code42" x="265.6" y="176.4" class="st9" width="8.3" height="1.1"/>
			<rect id="code41" x="265.6" y="179" class="st9" width="8.3" height="1.1"/>
			<polygon id="code40" class="st9" points="283,171.2 281.4,171.2 270.8,171.2 270.8,172.3 281.4,172.3 283,172.3 285.6,172.3 
				285.6,171.2 			"/>
			<rect id="code39" x="288.4" y="171.2" class="st9" width="13.5" height="1.1"/>
			<rect id="code38" x="275.7" y="173.8" class="st9" width="8.5" height="1.1"/>
			<rect id="code37" x="276.5" y="179" class="st9" width="6.5" height="1.1"/>
			<polygon id="code36" class="st9" points="289.4,176.4 288.4,176.4 276.5,176.4 276.5,177.5 288.4,177.5 289.4,177.5 295.4,177.5 
				295.4,176.4 			"/>
			<rect id="code35" x="284.9" y="179" class="st9" width="12.4" height="1.1"/>
			<rect id="code34" x="298.9" y="179" class="st9" width="3.2" height="1.1"/>
			<rect id="code33" x="281.9" y="181.6" class="st9" width="6" height="1.1"/>
			<polygon id="code32" class="st9" points="279.6,181.6 277.4,181.6 271.4,181.6 271.4,182.7 277.4,182.7 279.6,182.7 300.5,182.7 
				300.5,181.6 			"/>
			<rect id="code31" x="302.2" y="181.6" class="st9" width="3.4" height="1.1"/>
			<rect id="code30" x="265.6" y="186.8" class="st9" width="8.3" height="1.1"/>
			<rect id="code29" x="265.6" y="189.4" class="st9" width="8.3" height="1.1"/>
			<rect id="code28" x="276.5" y="186.8" class="st9" width="13.7" height="1.1"/>
			<rect id="code27" x="276.5" y="189.4" class="st9" width="7.5" height="1.1"/>
			<rect id="code26" x="292.3" y="186.8" class="st9" width="3.7" height="1.1"/>
			<rect id="code25" x="297.7" y="186.8" class="st9" width="4.6" height="1.1"/>
			<rect id="code24" x="291.4" y="189.4" class="st9" width="8.4" height="1.1"/>
			<rect id="code23" x="285.7" y="189.4" class="st9" width="3.6" height="1.1"/>
			<rect id="code22" x="259" y="193.7" class="st9" width="8.9" height="1.1"/>
			<rect id="code21" x="259" y="196.2" class="st9" width="14.3" height="1.1"/>
			<rect id="code20" x="265.6" y="198.8" class="st9" width="8.3" height="1.1"/>
			<rect id="code19" x="265.6" y="201.4" class="st9" width="8.3" height="1.1"/>
			<rect id="code18" x="271.4" y="204" class="st9" width="8.1" height="1.1"/>
			<rect id="code17" x="270.8" y="193.7" class="st9" width="8.4" height="1.1"/>
			<polygon id="code16" class="st9" points="290.2,193.7 288.4,193.7 281.4,193.7 281.4,194.7 288.4,194.7 290.2,194.7 307.9,194.7 
				307.9,193.7 			"/>
			<rect id="code15" x="275.7" y="196.2" class="st9" width="8.5" height="1.1"/>
			<rect id="code14" x="276.5" y="201.4" class="st9" width="6.5" height="1.1"/>
			<polygon id="code13" class="st9" points="289.2,198.8 288.4,198.8 276.5,198.8 276.5,199.9 288.4,199.9 289.2,199.9 295.4,199.9 
				295.4,198.8 			"/>
			<rect id="code12" x="297.3" y="198.8" class="st9" width="4.3" height="1.1"/>
			<rect id="code11" x="303.7" y="198.8" class="st9" width="4.2" height="1.1"/>
			<rect id="code10" x="284.9" y="201.4" class="st9" width="12.4" height="1.1"/>
			<rect id="code9" x="298.9" y="201.4" class="st9" width="3.2" height="1.1"/>
			<rect id="code8" x="281.9" y="204" class="st9" width="6" height="1.1"/>
			<rect id="code7" x="265.6" y="211.8" class="st9" width="8.3" height="1.1"/>
			<polygon id="code6" class="st9" points="274,209.2 271,209.2 265.6,209.2 265.6,210.3 271,210.3 274,210.3 290.3,210.3 
				290.3,209.2 			"/>
			<rect id="code5" x="276.5" y="211.8" class="st9" width="7.5" height="1.1"/>
			<rect id="code4" x="292.3" y="209.2" class="st9" width="3.7" height="1.1"/>
			<rect id="code3" x="297.7" y="209.2" class="st9" width="4.6" height="1.1"/>
			<rect id="code2" x="291.4" y="211.8" class="st9" width="8.4" height="1.1"/>
			<rect id="code1" x="285.7" y="211.8" class="st9" width="3.6" height="1.1"/>
		</g>
		<rect x="252.3" y="130.9" class="st10" width="67" height="5.2"/>
		<path id="small-circle-2" class="st11" d="M316.2,133.2c0,0.8-0.6,1.4-1.4,1.4c-0.8,0-1.4-0.6-1.4-1.4c0-0.8,0.6-1.4,1.4-1.4
			C315.5,131.8,316.2,132.4,316.2,133.2z"/>
		<path id="small-circle-1" class="st11" d="M311.6,133.2c0,0.8-0.6,1.4-1.4,1.4c-0.8,0-1.4-0.6-1.4-1.4c0-0.8,0.6-1.4,1.4-1.4
			C311,131.8,311.6,132.4,311.6,133.2z"/>
		<g id="ui-page">
			<rect x="91" y="66.4" class="st9" width="153.1" height="176.5"/>
			<rect x="91" y="66.4" class="st10" width="153.1" height="8.5"/>
			<path class="st11" d="M239.9,70.4c0,1.1-0.9,2-2,2c-1.1,0-2-0.9-2-2c0-1.1,0.9-2,2-2C238.9,68.4,239.9,69.3,239.9,70.4z"/>
			<path class="st11" d="M233,70.4c0,1.1-0.9,2-2,2c-1.1,0-2-0.9-2-2c0-1.1,0.9-2,2-2C232.1,68.4,233,69.3,233,70.4z"/>
			<rect x="91" y="90.2" class="st12" width="153.1" height="9.9"/>
			<rect x="188.6" y="93" class="st9" width="46.9" height="4.4"/>
			<g>
				<rect x="101.4" y="93.7" class="st13" width="13.7" height="2.9"/>
				<rect x="116.3" y="93.7" class="st13" width="13.7" height="2.9"/>
				<rect x="131.1" y="93.7" class="st13" width="13.7" height="2.9"/>
				<rect x="146" y="93.7" class="st13" width="13.7" height="2.9"/>
			</g>
			<rect x="121.4" y="115" class="st14" width="27.9" height="22.6"/>
			<path class="st9" d="M238.6,93.6c-0.6,0-1.1,0.5-1.1,1.1c0,0.6,0.5,1.1,1.1,1.1c0.6,0,1.1-0.5,1.1-1.1
				C239.7,94,239.2,93.6,238.6,93.6L238.6,93.6z M237.6,93.6L237.6,93.6c0.6-0.6,1.5-0.6,2.1,0c0.6,0.6,0.6,1.5,0,2
				c-0.6,0.6-1.5,0.6-2.1,0C237,95.1,237,94.2,237.6,93.6z"/>
			<path class="st9" d="M239.9,96.2l-0.3-0.3c0.1,0,0.1-0.1,0.2-0.1c0.1-0.1,0.1-0.1,0.2-0.2l0.3,0.3L239.9,96.2z"/>
			<path class="st9" d="M241.6,97.1c0.1,0.1,0.1,0.3,0,0.4c-0.1,0.1-0.3,0.1-0.4,0l-1.3-1.3l0.4-0.4L241.6,97.1z"/>
			<path class="st9" d="M238.5,95.5c0.1,0,0.2,0,0.3-0.1h0c0.1,0,0.1-0.1,0.1-0.1c0,0-0.1-0.1-0.1-0.1c-0.1,0-0.2,0-0.2,0
				c-0.2,0-0.4-0.1-0.5-0.3c0-0.1-0.1-0.1-0.1-0.1c0,0-0.1,0.1-0.1,0.1C238,95.4,238.2,95.5,238.5,95.5L238.5,95.5z"/>
			<rect x="152.4" y="114.8" class="st15" width="27.9" height="22.6"/>
			<rect x="183.4" y="114.7" class="st16" width="27.9" height="22.6"/>
			<rect x="103.2" y="214.4" class="st17" width="39.9" height="2"/>
			<rect x="103.2" y="218" class="st17" width="39.9" height="2"/>
			<rect x="103.2" y="221.6" class="st17" width="39.9" height="2"/>
			<rect x="103.2" y="225.1" class="st17" width="39.9" height="2"/>
			<rect x="103.2" y="228.7" class="st17" width="39.9" height="2"/>
			<rect x="103.2" y="232.3" class="st17" width="39.9" height="2"/>
			<rect x="103.2" y="235.8" class="st17" width="39.9" height="2"/>
			<rect x="148.1" y="214.4" class="st17" width="39.9" height="2"/>
			<rect x="148.1" y="218" class="st17" width="39.9" height="2"/>
			<rect x="148.1" y="221.6" class="st17" width="39.9" height="2"/>
			<rect x="148.1" y="225.1" class="st17" width="39.9" height="2"/>
			<rect x="148.1" y="228.7" class="st17" width="39.9" height="2"/>
			<rect x="148.1" y="232.3" class="st17" width="39.9" height="2"/>
			<rect x="148.1" y="235.8" class="st17" width="39.9" height="2"/>
			<rect x="193.2" y="214.4" class="st17" width="39.9" height="2"/>
			<rect x="193.2" y="218" class="st17" width="39.9" height="2"/>
			<rect x="193.2" y="221.6" class="st17" width="39.9" height="2"/>
			<rect x="193.2" y="225.1" class="st17" width="39.9" height="2"/>
			<rect x="193.2" y="228.7" class="st17" width="39.9" height="2"/>
			<rect x="193.2" y="232.3" class="st17" width="39.9" height="2"/>
			<rect x="193.2" y="235.8" class="st17" width="39.9" height="2"/>
			<rect x="91" y="152.2" class="st12" width="153.1" height="47.8"/>
			<rect x="105.4" y="160.1" class="st13" width="39.5" height="32"/>
			<rect x="155" y="171.4" class="st9" width="63.2" height="1.1"/>
			<rect x="155" y="174" class="st9" width="63.2" height="1.1"/>
			<rect x="155" y="176.6" class="st9" width="63.2" height="1.1"/>
			<rect x="155" y="179.2" class="st9" width="41.6" height="1.1"/>
			<g>
				<polygon class="st13" points="92.8,176.1 94.7,175.1 96.5,174 96.5,176.1 96.5,178.3 94.7,177.2 				"/>
				<polygon class="st13" points="242.4,176.1 240.5,175.1 238.6,174 238.6,176.1 238.6,178.3 240.5,177.2 				"/>
			</g>
			<rect x="103.2" y="202.3" class="st14" width="39.9" height="10.3"/>
			<rect x="148.1" y="202.7" class="st16" width="39.9" height="10.3"/>
			<rect x="193.2" y="202.8" class="st15" width="39.9" height="10.3"/>
		</g>
		<g id="colour-swatch">
			<g>
				<g>
					
						<rect x="345.2" y="181" transform="matrix(0.8285 -0.56 0.56 0.8285 -59.3389 234.369)" class="st11" width="15.4" height="66"/>
					<g>
						
							<rect x="356.5" y="222.5" transform="matrix(0.8287 -0.5597 0.5597 0.8287 -66.1343 242.6408)" class="st18" width="13.6" height="13.6"/>
						
							<rect x="348.3" y="210.5" transform="matrix(0.8285 -0.5599 0.5599 0.8285 -60.774 236.0988)" class="st19" width="13.6" height="13.6"/>
						
							<rect x="340.1" y="198.4" transform="matrix(0.8284 -0.5601 0.5601 0.8284 -55.4113 229.557)" class="st20" width="13.6" height="13.6"/>
						
							<rect x="332" y="186.3" transform="matrix(0.8285 -0.56 0.56 0.8285 -50.0583 222.8442)" class="st21" width="13.6" height="13.6"/>
					</g>
				</g>
				<g>
					
						<rect x="354" y="177.2" transform="matrix(0.9641 -0.2656 0.2656 0.9641 -42.8433 103.6119)" class="st11" width="15.4" height="66"/>
					<g>
						
							<rect x="359.8" y="221.2" transform="matrix(0.9641 -0.2656 0.2656 0.9641 -47.3967 105.5656)" class="st22" width="13.6" height="13.6"/>
						
							<rect x="355.9" y="207.2" transform="matrix(0.9641 -0.2657 0.2657 0.9641 -43.8156 104.0665)" class="st23" width="13.6" height="13.6"/>
						
							<rect x="352.1" y="193.1" transform="matrix(0.9641 -0.2656 0.2656 0.9641 -40.2156 102.496)" class="st24" width="13.6" height="13.6"/>
						
							<rect x="348.2" y="179.1" transform="matrix(0.9641 -0.2656 0.2656 0.9641 -36.6294 100.9807)" class="st25" width="13.6" height="13.6"/>
					</g>
				</g>
				<g>
					
						<rect x="337.4" y="201.6" transform="matrix(3.627434e-02 -0.9993 0.9993 3.627434e-02 147.8794 571.9003)" class="st11" width="66" height="15.4"/>
					<g>
						
							<rect x="363" y="220.9" transform="matrix(3.594666e-02 -0.9994 0.9994 3.594666e-02 128.9233 589.0901)" class="st26" width="13.6" height="13.6"/>
						
							<rect x="363.5" y="206.3" transform="matrix(3.594771e-02 -0.9994 0.9994 3.594771e-02 143.9723 575.5859)" class="st27" width="13.6" height="13.6"/>
						
							<rect x="364" y="191.8" transform="matrix(3.608723e-02 -0.9993 0.9993 3.608723e-02 158.9711 562.0486)" class="st28" width="13.6" height="13.6"/>
						
							<rect x="364.5" y="177.2" transform="matrix(3.598404e-02 -0.9994 0.9994 3.598404e-02 174.0578 548.5659)" class="st29" width="13.6" height="13.6"/>
					</g>
				</g>
				<g>
					
						<rect x="345.6" y="203.1" transform="matrix(0.3078 -0.9515 0.9515 0.3078 61.5263 506.1366)" class="st11" width="66" height="15.4"/>
					<g>
						
							<rect x="366.1" y="221.5" transform="matrix(0.308 -0.9514 0.9514 0.308 40.8308 512.8223)" class="st30" width="13.6" height="13.6"/>
						
							<rect x="370.6" y="207.7" transform="matrix(0.308 -0.9514 0.9514 0.308 57.1128 507.4981)" class="st31" width="13.6" height="13.6"/>
						
							<rect x="375.1" y="193.8" transform="matrix(0.3077 -0.9515 0.9515 0.3077 73.4717 502.2506)" class="st32" width="13.6" height="13.6"/>
						
							<rect x="379.6" y="180" transform="matrix(0.3079 -0.9514 0.9514 0.3079 89.6945 496.8626)" class="st5" width="13.6" height="13.6"/>
					</g>
				</g>
				<g>
					
						<rect x="352.9" y="206.7" transform="matrix(0.5666 -0.824 0.824 0.5666 -9.4098 410.8881)" class="st11" width="66" height="15.4"/>
					<g>
						
							<rect x="368.6" y="222.8" transform="matrix(0.5667 -0.8239 0.8239 0.5667 -26.5098 408.7791)" class="st33" width="13.6" height="13.6"/>
						
							<rect x="376.8" y="210.8" transform="matrix(0.5667 -0.8239 0.8239 0.5667 -13.0444 410.3927)" class="st34" width="13.6" height="13.6"/>
						
							<rect x="385.1" y="198.8" transform="matrix(0.5666 -0.824 0.824 0.5666 0.448 412.052)" class="st35" width="13.6" height="13.6"/>
						
							<rect x="393.4" y="186.8" transform="matrix(0.5667 -0.8239 0.8239 0.5667 13.881 413.5965)" class="st36" width="13.6" height="13.6"/>
					</g>
				</g>
			</g>
			<path class="st37" d="M369.1,236.5c0.7,0,1.4,0.5,1.4,1.3c0,0.7-0.5,1.4-1.3,1.4c-0.7,0-1.4-0.5-1.4-1.3
				C367.8,237.2,368.4,236.6,369.1,236.5z"/>
			<path class="st38" d="M369.1,237.3c0.3,0,0.6,0.2,0.6,0.5l0.5,11.6c0,0.3-0.2,0.6-0.5,0.6c-0.3,0-0.6-0.2-0.6-0.5l-0.5-11.6
				C368.6,237.6,368.8,237.3,369.1,237.3z"/>
		</g>
		<g id="large-pencil">
			
				<rect x="13" y="199.1" transform="matrix(0.9061 -0.4231 0.4231 0.9061 -82.3947 43.7588)" class="st39" width="88.8" height="16.7"/>
			
				<rect x="15.7" y="211.4" transform="matrix(0.9061 -0.423 0.423 0.9061 -84.6064 45.4578)" class="st40" width="88.8" height="3.8"/>
			
				<rect x="11.2" y="199.5" transform="matrix(0.9061 -0.4231 0.4231 0.9061 -80.9654 42.6609)" class="st41" width="88.8" height="8.4"/>
			
				<rect x="10.3" y="199.7" transform="matrix(0.906 -0.4232 0.4232 0.906 -80.2537 42.1145)" class="st42" width="88.8" height="4.2"/>
			<polygon class="st43" points="116.8,179.7 101.1,196.3 94.1,181.1 			"/>
			<polygon class="st44" points="116.8,179.7 111.6,185.2 109.2,180.2 			"/>
			<path class="st45" d="M0.9,233.8l0.1,0.2c1.9,4.1,6.9,5.9,11,4l3.3-1.5l-7.1-15.2l-3.3,1.5C0.8,224.7-1,229.6,0.9,233.8z"/>
			
				<rect x="11.5" y="219.2" transform="matrix(0.9061 -0.4232 0.4232 0.9061 -94.9234 27.49)" class="st46" width="6" height="16.7"/>
		</g>
		<g id="light-bulb">
			<g>
				<path class="st9" d="M211.3,42.3l-9.3-0.2c-0.4,0-0.7,0.2-0.7,0.6l0,0.4c0,0.3,0.3,0.6,0.7,0.6l9.3,0.2c0.4,0,0.7-0.2,0.7-0.6
					l0-0.4C212,42.5,211.7,42.3,211.3,42.3z"/>
				<path class="st9" d="M211.3,44l-9.3-0.2c-0.4,0-0.7,0.2-0.7,0.6l0,0.4c0,0.3,0.3,0.6,0.7,0.6l9.3,0.2c0.4,0,0.7-0.2,0.7-0.6
					l0-0.4C212,44.3,211.7,44,211.3,44z"/>
				<path class="st9" d="M211.3,45.7l-9.3-0.2c-0.4,0-0.7,0.2-0.7,0.6l0,0.4c0,0.3,0.3,0.6,0.7,0.6l9.3,0.2c0.4,0,0.7-0.2,0.7-0.6
					l0-0.4C212,46,211.7,45.7,211.3,45.7z"/>
				<path class="st9" d="M203.1,47.3l6.9,0.1c0,1.1-1.9,1.9-3.5,1.9C205,49.3,203.1,48.5,203.1,47.3z"/>
			</g>
			<path class="st9" d="M205.3,32.9c-0.8-0.1-1.3-1.1-1-2.3c0.1-0.3,0.4-0.5,0.6-0.2c0.3,0.4,0.3,0.9,0.4,1.4
				C205.2,32.2,205.3,32.6,205.3,32.9L205.3,32.9L205.3,32.9L205.3,32.9z M206.7,32.3L206.7,32.3c-0.1-0.1-0.3-0.2-0.4-0.3
				c-0.4-0.5-0.1-1.6,0.6-1.9c0.2-0.1,0.6-0.1,0.6,0.1c0.1,0.4-0.2,0.9-0.4,1.3C207,31.8,206.8,32.1,206.7,32.3L206.7,32.3
				L206.7,32.3L206.7,32.3z M208.6,32.5L208.6,32.5c0.1-0.6,0.2-1.1,0.5-1.6c0.2-0.4,0.6-0.7,1.1-0.8c0.1,0,0.3,0,0.3,0.1
				c0,0.2,0,0.3-0.1,0.5c-0.1,0.3-0.3,0.7-0.5,1C209.6,32.1,209.2,32.4,208.6,32.5L208.6,32.5L208.6,32.5L208.6,32.5z M208.3,33
				L208.3,33c0,0.6,0,1.3,0.1,1.9c0.1,1.1,0.2,2.3,0.5,3.4c0,0.2,0.1,0.5,0.1,0.7c0.1,0.6,0.3,1.3,0.5,1.9l0.2,0
				c-0.2-0.8-0.4-1.6-0.5-2.4c0-0.1,0-0.2-0.1-0.3c-0.2-1.3-0.4-2.6-0.5-3.9c0-0.4,0-0.8,0-1.3l0,0l0,0c0.3,0,0.7-0.1,1-0.3
				c0.5-0.3,0.9-1,1.1-1.6c0.1-0.4,0.2-1.1-0.3-1.4c-0.4-0.2-0.9,0.1-1.3,0.4c-0.3,0.3-0.5,0.7-0.6,1.1c-0.1,0.4-0.2,0.9-0.2,1.3
				l0,0l0,0l-0.1,0c-0.4,0-0.8,0-1.2-0.1l0,0l0,0c0.4-0.5,0.7-1.1,0.7-1.6c0-0.4-0.1-1-0.5-1.2c-0.5-0.2-1,0.2-1.2,0.7
				c-0.3,0.6-0.3,1.3,0.1,1.9c0.1,0.1,0.2,0.2,0.3,0.3l0,0l0,0c-0.3,0.3-0.6,0.4-0.9,0.4l0,0l0,0c0-0.8,0-1.6-0.3-2.3
				c-0.1-0.2-0.5-1-0.9-0.8c-0.5,0.3-0.3,1.4-0.2,1.9c0.1,0.6,0.4,1.3,1,1.5c0.1,0,0.1,0.1,0.2,0.1l0,0l0,0c0,0.6-0.1,1.2-0.2,1.9
				c-0.2,1.4-0.5,2.8-0.8,4.3c-0.1,0.4-0.2,0.9-0.2,1.3l0.3,0c0.1-0.5,0.2-1,0.3-1.4c0.2-1.1,0.5-2.2,0.6-3.3
				c0.1-0.9,0.2-1.8,0.2-2.7l0,0c0.4,0,0.7-0.1,1-0.4c0.1-0.1,0.2-0.2,0.3-0.3l0,0l0,0c0.3,0.1,0.6,0.2,0.9,0.2
				C207.9,33,208.1,33,208.3,33L208.3,33L208.3,33z"/>
			<g>
				<path class="st9" d="M207.7,8.2c-6.9-0.1-12.6,5.4-12.7,12.3c0,2.3,0.6,4.4,1.6,6.3c3,5.6,3.7,8.7,4.2,11.7
					c0.4,2.5,0.9,3.1,2.8,3.2c0.8,0,2.1,0,3.5,0.1c1.4,0,2.7,0.1,3.5,0.1c1.9,0,2.5-0.5,3-3c0.6-3,1.4-6.1,4.6-11.6
					c1.1-1.8,1.7-3.9,1.8-6.2C220.1,14,214.6,8.3,207.7,8.2L207.7,8.2z M217.2,26.5L217.2,26.5c-3.1,5.3-4.1,8.5-4.7,11.9
					c-0.1,0.4-0.3,1.5-0.6,1.9c-0.1,0.1-0.4,0.2-1.2,0.2l-3.5-0.1l-3.5-0.1c-0.8,0-1.1-0.1-1.2-0.3c-0.3-0.4-0.5-1.5-0.6-1.9
					c-0.5-3.4-1.4-6.6-4.3-12.1c-1-1.8-1.5-3.8-1.4-5.7c0.1-6.3,5.3-11.3,11.6-11.2c6.3,0.1,11.3,5.3,11.2,11.6
					C218.8,22.8,218.2,24.7,217.2,26.5z"/>
			</g>
			<path class="st9" d="M200.9,17.2c-0.5,0.4-2.8,2.5-0.4,6.4c0.2,0.3,0.1,0.6-0.2,0.8c-0.1,0.1-0.2,0.1-0.3,0.1
				c-0.2,0-0.4-0.1-0.5-0.3c-2.9-4.7,0.1-7.4,0.7-7.9c0.3-0.2,0.6-0.2,0.8,0.1C201.2,16.6,201.1,17,200.9,17.2z"/>
			<g>
				<path class="st9" d="M226.8,19.7c-0.2-0.2-0.4-0.3-0.7-0.3l-4.1-0.1c-0.3,0-0.5,0.1-0.7,0.3c-0.2,0.2-0.3,0.4-0.3,0.7
					c0,0.3,0.1,0.5,0.3,0.7c0.2,0.2,0.4,0.3,0.7,0.3l4.1,0.1c0.3,0,0.5-0.1,0.7-0.3c0.2-0.2,0.3-0.4,0.3-0.7
					C227.1,20.2,227,19.9,226.8,19.7z"/>
				<path class="st9" d="M220.8,14.5c0.2,0,0.3,0,0.5-0.1l3.6-2c0.1,0,0.1-0.1,0.2-0.1c0,0,0,0,0,0c0.3-0.3,0.4-0.8,0.2-1.2
					c-0.1-0.2-0.3-0.4-0.6-0.5c-0.3-0.1-0.5,0-0.7,0.1l-3.6,2c-0.1,0-0.1,0.1-0.2,0.1c-0.3,0.3-0.4,0.8-0.2,1.2
					C220.1,14.3,220.4,14.5,220.8,14.5z"/>
				<path class="st9" d="M218.1,3c-0.4-0.2-0.9-0.2-1.2,0.1c-0.1,0.1-0.1,0.1-0.2,0.2l-2.1,3.5c-0.3,0.5-0.1,1.1,0.3,1.3
					c0.1,0.1,0.3,0.1,0.5,0.1c0.3,0,0.5-0.1,0.7-0.3c0.1-0.1,0.1-0.1,0.2-0.2l2.1-3.5C218.7,3.9,218.6,3.3,218.1,3z"/>
				<path class="st9" d="M189.5,11.3l3.5,2.1c0.1,0.1,0.3,0.1,0.5,0.1c0.3,0,0.5-0.1,0.7-0.3c0.1-0.1,0.1-0.1,0.2-0.2
					c0.3-0.5,0.1-1.1-0.3-1.3l-3.5-2.1c-0.4-0.2-0.9-0.2-1.2,0.1c-0.1,0.1-0.1,0.1-0.2,0.2C188.9,10.5,189.1,11.1,189.5,11.3z"/>
				<path class="st9" d="M224.6,28l-3.5-2.1c-0.4-0.2-0.9-0.2-1.2,0.1c-0.1,0.1-0.1,0.1-0.2,0.2c-0.3,0.5-0.1,1.1,0.3,1.3l3.5,2.1
					c0.1,0.1,0.3,0.1,0.5,0.1c0.3,0,0.5-0.1,0.7-0.3c0.1-0.1,0.1-0.1,0.2-0.2C225.2,28.9,225,28.3,224.6,28z"/>
				<path class="st9" d="M193.6,25.7c-0.3-0.1-0.5,0-0.7,0.1l-3.6,2c-0.1,0-0.1,0.1-0.2,0.2c-0.3,0.3-0.4,0.8-0.2,1.2
					c0.2,0.3,0.5,0.5,0.8,0.5c0.2,0,0.3,0,0.5-0.1l3.6-2c0.1,0,0.1-0.1,0.2-0.1c0.3-0.3,0.4-0.8,0.2-1.2
					C194,26,193.8,25.8,193.6,25.7z"/>
				<path class="st9" d="M197.9,2.7c-0.1-0.2-0.3-0.4-0.6-0.5c-0.2-0.1-0.5,0-0.7,0.1c-0.1,0-0.1,0.1-0.2,0.2
					c-0.3,0.3-0.4,0.8-0.2,1.2l2,3.6c0.2,0.3,0.5,0.5,0.8,0.5c0.2,0,0.3,0,0.5-0.1c0.1,0,0.1-0.1,0.2-0.2c0.3-0.3,0.4-0.8,0.2-1.2
					L197.9,2.7z"/>
				<path class="st9" d="M207.6,0.1c-0.3,0-0.5,0.1-0.7,0.3c-0.2,0.2-0.3,0.4-0.3,0.7l-0.1,4.1c0,0.5,0.4,1,1,1
					c0.3,0,0.5-0.1,0.7-0.3c0.2-0.2,0.3-0.4,0.3-0.7l0.1-4.1C208.5,0.6,208.1,0.1,207.6,0.1z"/>
				<path class="st9" d="M193.6,20.5c0.2-0.2,0.3-0.4,0.3-0.7c0-0.3-0.1-0.5-0.3-0.7c-0.2-0.2-0.4-0.3-0.7-0.3l-4.1-0.1
					c-0.3,0-0.5,0.1-0.7,0.3c-0.2,0.2-0.3,0.4-0.3,0.7c0,0.5,0.4,1,1,1l4.1,0.1C193.2,20.8,193.4,20.7,193.6,20.5z"/>
			</g>
		</g>
		<g id="pen-tool">
			<g>
				<g>
					<path class="st9" d="M273.6,34c-2.3,0.6-4.5,2.1-5.9,4.5c-1.2,1.9-1.6,4.1-1.5,6.1c0,2.4,0.2,6-2.2,11.7c-0.5,0-1,0.2-1.3,0.7
						c-0.4,0.7-0.2,1.5,0.5,1.9c0.3,0.2,0.7,0.2,1.1,0.2l8-13.2c-0.6-0.7-0.8-1.8-0.2-2.6c0.6-1.1,2-1.4,3.1-0.8
						c1.1,0.6,1.4,2,0.7,3.1c-0.5,0.9-1.6,1.3-2.5,1l-8,13.1c0.1,0.4,0.3,0.7,0.6,0.9c0.7,0.4,1.5,0.2,1.9-0.5c0.3-0.5,0.3-1,0-1.4
						c4.4-5.3,7.9-6.5,10-7.7c1.6-0.8,3-2.1,4.1-3.8c1.4-2.3,1.8-4.9,1.3-7.3l2.8-3.7c0,0,1.2-1.1-0.1-1.9c-1.3-0.8-6.4-3.9-8.3-5.1
						c-1.7-1-2.2,0.9-2.2,0.9L273.6,34z"/>
				</g>
			</g>
			<path class="st9" d="M285.2,33.9c-0.2,0.4-0.7,0.5-1.1,0.3l-5.5-3.4c-0.4-0.2-0.5-0.7-0.3-1.1l2.5-4.1c0.2-0.4,0.7-0.5,1.1-0.3
				l5.5,3.4c0.4,0.2,0.5,0.7,0.3,1.1L285.2,33.9z"/>
		</g>
		<path id="ruler" class="st9" d="M78.4,54.4L30.9,96.5l-8.3-9.4L70.1,45L78.4,54.4L78.4,54.4z M30.2,91.6L30.2,91.6L29.7,92
			l2.6,2.9l0.5-0.4L30.2,91.6L30.2,91.6z M73.7,53L73.7,53l-0.5,0.4l2.6,2.9l0.4-0.4L73.7,53L73.7,53z M73.9,55.4L73.9,55.4
			l-0.5,0.4l1.3,1.5l0.5-0.4L73.9,55.4L73.9,55.4z M72.8,56.4L72.8,56.4l-0.5,0.4l1.3,1.5l0.5-0.4L72.8,56.4L72.8,56.4z M71.7,57.3
			L71.7,57.3l-0.5,0.4l1.3,1.5l0.4-0.4L71.7,57.3L71.7,57.3z M70.6,58.3L70.6,58.3l-0.5,0.4l1.3,1.5l0.4-0.4L70.6,58.3L70.6,58.3z
			 M68.3,57.9L68.3,57.9l-0.5,0.4l2.6,2.9l0.5-0.4L68.3,57.9L68.3,57.9z M68.5,60.2L68.5,60.2L68,60.6l1.3,1.5l0.5-0.4L68.5,60.2
			L68.5,60.2z M67.4,61.2L67.4,61.2l-0.5,0.4l1.3,1.5l0.5-0.4L67.4,61.2L67.4,61.2z M66.3,62.2L66.3,62.2l-0.5,0.4l1.3,1.5l0.5-0.4
			L66.3,62.2L66.3,62.2z M65.2,63.1L65.2,63.1l-0.5,0.4l1.3,1.5l0.5-0.4L65.2,63.1L65.2,63.1z M62.9,62.7L62.9,62.7l-0.5,0.4L65,66
			l0.5-0.4L62.9,62.7L62.9,62.7z M63,65.1L63,65.1l-0.5,0.4l1.3,1.5l0.5-0.4L63,65.1L63,65.1z M61.9,66L61.9,66l-0.5,0.4l1.3,1.5
			l0.5-0.4L61.9,66L61.9,66z M60.8,67L60.8,67l-0.5,0.4l1.3,1.5l0.5-0.4L60.8,67L60.8,67z M59.7,67.9L59.7,67.9l-0.5,0.4l1.3,1.5
			l0.5-0.4L59.7,67.9L59.7,67.9z M57.4,67.5L57.4,67.5L57,67.9l2.6,2.9l0.5-0.4L57.4,67.5L57.4,67.5z M57.6,69.9L57.6,69.9l-0.5,0.4
			l1.3,1.5l0.4-0.4L57.6,69.9L57.6,69.9z M56.5,70.8L56.5,70.8L56,71.2l1.3,1.5l0.4-0.4L56.5,70.8L56.5,70.8z M55.4,71.8L55.4,71.8
			l-0.5,0.4l1.3,1.5l0.5-0.4L55.4,71.8L55.4,71.8z M54.3,72.8L54.3,72.8l-0.5,0.4l1.3,1.5l0.4-0.4L54.3,72.8L54.3,72.8z M52,72.3
			L52,72.3l-0.5,0.4l2.6,2.9l0.5-0.4L52,72.3L52,72.3z M52.1,74.7L52.1,74.7l-0.5,0.4l1.3,1.5l0.5-0.4L52.1,74.7L52.1,74.7z
			 M51,75.7L51,75.7l-0.5,0.4l1.3,1.5l0.5-0.4L51,75.7L51,75.7z M49.9,76.6L49.9,76.6L49.5,77l1.3,1.5l0.5-0.4L49.9,76.6L49.9,76.6z
			 M48.8,77.6L48.8,77.6L48.4,78l1.3,1.5l0.5-0.4L48.8,77.6L48.8,77.6z M46.5,77.2L46.5,77.2l-0.5,0.4l2.6,2.9l0.4-0.4L46.5,77.2
			L46.5,77.2z M46.7,79.5L46.7,79.5l-0.5,0.4l1.3,1.5L48,81L46.7,79.5L46.7,79.5z M45.6,80.5L45.6,80.5l-0.5,0.4l1.3,1.5l0.5-0.4
			L45.6,80.5L45.6,80.5z M44.5,81.5L44.5,81.5L44,81.9l1.3,1.5l0.4-0.4L44.5,81.5L44.5,81.5z M43.4,82.4L43.4,82.4l-0.5,0.4l1.3,1.5
			l0.5-0.4L43.4,82.4L43.4,82.4z M41.1,82L41.1,82l-0.5,0.4l2.6,2.9l0.5-0.4L41.1,82L41.1,82z M41.2,84.4L41.2,84.4l-0.5,0.4
			l1.3,1.5l0.5-0.4L41.2,84.4L41.2,84.4z M40.1,85.3L40.1,85.3l-0.5,0.4l1.3,1.5l0.5-0.4L40.1,85.3L40.1,85.3z M39,86.3L39,86.3
			l-0.5,0.4l1.3,1.5l0.5-0.4L39,86.3L39,86.3z M37.9,87.2L37.9,87.2l-0.5,0.4l1.3,1.5l0.5-0.4L37.9,87.2L37.9,87.2z M35.6,86.8
			L35.6,86.8l-0.5,0.4l2.6,2.9l0.5-0.4L35.6,86.8L35.6,86.8z M35.8,89.2L35.8,89.2l-0.5,0.4l1.3,1.5l0.5-0.4L35.8,89.2L35.8,89.2z
			 M34.7,90.1L34.7,90.1l-0.5,0.4l1.3,1.5l0.5-0.4L34.7,90.1L34.7,90.1z M33.6,91.1L33.6,91.1l-0.5,0.4l1.3,1.5l0.5-0.4L33.6,91.1
			L33.6,91.1z M32.5,92.1L32.5,92.1L32,92.5l1.3,1.5l0.5-0.4L32.5,92.1z"/>
		<g id="camera">
			<path class="st9" d="M120.4,34.1c-0.9-6.6,3.8-12.7,10.3-13.6c6.6-0.9,12.7,3.7,13.6,10.3c0.9,6.7-3.7,12.8-10.3,13.7
				C127.4,45.4,121.3,40.8,120.4,34.1L120.4,34.1z M112.4,19.4L112.4,19.4c-0.2,0-0.4,0.3-0.4,0.5l0.2,1.5l-1.8,0.2
				c-0.7,0.1-1.2,0.7-1.1,1.4l3.4,24.8c0.1,0.7,0.7,1.1,1.4,1l40.1-5.5c0.7-0.1,1.1-0.7,1-1.3l-3.4-24.8c-0.1-0.7-0.7-1.2-1.3-1.1
				l-2.5,0.4l-0.1-1c-0.1-0.4-0.4-0.7-0.8-0.6l-4.9,0.7c-0.4,0.1-0.7,0.4-0.6,0.8l0.1,1l-23.4,3.2l-0.2-1.5c0-0.2-0.3-0.4-0.5-0.4
				L112.4,19.4L112.4,19.4z M147.9,21.3L147.9,21.3c0.4-0.1,0.7-0.4,0.6-0.8l-0.1-0.7c-0.1-0.4-0.4-0.6-0.8-0.6l-4.9,0.7
				c-0.4,0.1-0.7,0.3-0.6,0.8l0.1,0.7c0.1,0.4,0.4,0.7,0.8,0.6L147.9,21.3z"/>
			<path class="st9" d="M130.7,21.6c-6.1,0.8-10.3,6.4-9.5,12.5c0.8,6.1,6.4,10.4,12.5,9.5c6-0.8,10.2-6.4,9.4-12.5
				C142.3,25,136.7,20.8,130.7,21.6L130.7,21.6z M124.4,33.6L124.4,33.6c-0.6-4.3,2.4-8.3,6.7-8.9c4.2-0.6,8.3,2.5,8.9,6.8
				c0.6,4.3-2.5,8.4-6.7,9C129,41.1,125,38,124.4,33.6z"/>
			<path class="st9" d="M131.2,25.5c3.9-0.5,7.5,2.2,8,6.1c0.5,3.9-2.2,7.5-6.1,8c-3.9,0.5-7.5-2.2-8-6.1
				C124.6,29.7,127.3,26.1,131.2,25.5L131.2,25.5z M131.6,28.3L131.6,28.3c-2.4,0.3-4.1,2.5-3.7,4.9c0.3,2.4,2.5,4.1,4.9,3.7
				c2.4-0.3,4.1-2.5,3.7-4.9C136.2,29.6,134,27.9,131.6,28.3z"/>
		</g>
		<g id="paintbrush-and-paint">
			<path id="paints" class="st9" d="M322.5,61.9c1.9-0.1,3.7,0.8,4,1.9c0.4,1.2-0.9,2.3-3,2.4c-2.1,0.1-3.9-0.9-4.1-2.1
				C319.2,62.9,320.6,61.9,322.5,61.9L322.5,61.9z M346.5,59.6L346.5,59.6c-2.5-3.2-5.7-5.4-9.3-7c-3.4-1.5-7.2-2.4-11-2.4
				c-4.6,0-9.7,1.5-5.7,4c2.1,1.3,3.4,2,2.9,3.4c-0.5,1.4-2.4,1.5-4.8,0.2c-4.9-2.6-7.2,0.9-5.6,5.7c2,5.9,10,14.4,24.3,13.2
				c6.1-0.5,10-3.3,11.4-6.9C350,66.7,349,62.8,346.5,59.6L346.5,59.6z M330.6,66.7L330.6,66.7c2.1-0.1,4.3,0.8,4.9,2.2
				c0.6,1.4-0.7,2.8-3,2.9c-2.3,0.2-4.6-1-5.1-2.4C327,67.9,328.5,66.8,330.6,66.7L330.6,66.7z M330.4,54.5L330.4,54.5
				c0.4,0.8-0.6,1.6-2.3,1.6c-1.7,0-3.3-0.7-3.6-1.6c-0.3-0.9,0.8-1.5,2.4-1.5C328.5,53,330,53.6,330.4,54.5L330.4,54.5z
				 M337.7,61.2L337.7,61.2c-0.6-1,0.2-1.8,1.7-1.8c1.4,0,3.1,0.7,3.8,1.7c0.7,1,0,1.9-1.5,2C340.1,63,338.3,62.2,337.7,61.2
				L337.7,61.2z M339,64.8L339,64.8c1.7-0.1,3.5,0.7,4.2,1.9c0.7,1.2-0.1,2.3-1.9,2.4c-1.8,0.1-3.8-0.9-4.4-2.1
				C336.3,65.8,337.3,64.9,339,64.8z"/>
			<path id="painbrush-handle" class="st9" d="M360.9,42.7c-0.3,0.9-6,25.9-7.4,32.2c0.1,0,0.2,0,0.3-0.1c1.3-0.3,2.8,0,3.8,0.9
				c1.1-6.4,5.3-31.6,5.3-32.6C363,41.2,361.5,40.9,360.9,42.7z"/>
			<path id="paintbrush-end" class="st9" d="M350.8,79.2c-0.4,2.9,1.3,4.9-1.5,8c3.7-1.4,8.8-4.3,8.8-8.8
				C358,75,351.5,74.1,350.8,79.2z"/>
		</g>
		<g id="video">
			<path class="st9" d="M22.2,118.6c-3,0-5.4,2.4-5.4,5.4v18.7c0,3,2.4,5.4,5.4,5.4h26.4c3,0,5.4-2.4,5.4-5.4v-18.7
				c0-3-2.4-5.4-5.4-5.4H22.2L22.2,118.6z M48.7,150.3H22.2c-4.1,0-7.5-3.4-7.5-7.5v-18.7c0-4.1,3.4-7.5,7.5-7.5h26.4
				c4.1,0,7.5,3.4,7.5,7.5v18.7C56.2,146.9,52.8,150.3,48.7,150.3z"/>
			<polygon class="st9" points="27.9,140.5 27.9,126.3 46.6,133.4 			"/>
		</g>
		<path id="large-cog" class="st9" d="M370,119.1c3.7-2.3,8.3,0,8.8,4.3c0.3,2.1-0.8,4.3-2.6,5.5c-3.7,2.3-8.3,0-8.8-4.3
			C367.1,122.4,368.1,120.2,370,119.1L370,119.1z M356.4,127l1.7,4.9l5.1-1.8c0.7,1.1,1.6,2.1,2.6,2.9l-2.4,4.9l4.7,2.3l2.4-4.9
			c1.2,0.3,2.6,0.4,3.9,0.2l1.8,5.1l4.9-1.7l-1.8-5.1c1.1-0.7,2.1-1.6,2.9-2.6l4.9,2.4l2.3-4.7l-4.9-2.4c0.3-1.3,0.4-2.6,0.2-3.9
			l5.1-1.8L388,116l-5.1,1.8c-0.7-1.1-1.6-2.1-2.6-2.9l2.4-4.9l-4.7-2.3l-2.4,4.9c-1.2-0.3-2.6-0.4-3.9-0.2l-1.8-5.1l-4.9,1.7
			l1.8,5.1c-1.1,0.7-2.1,1.6-2.9,2.6l-4.9-2.4l-2.3,4.7l4.9,2.4c-0.3,1.2-0.4,2.6-0.2,3.9L356.4,127z"/>
		<path id="small-cog" class="st9" d="M398.9,115.6c2.9-1.8,6.6,0,7,3.4c0.2,1.7-0.6,3.4-2.1,4.3c-2.9,1.8-6.6,0-7-3.4
			C396.6,118.2,397.4,116.5,398.9,115.6L398.9,115.6z M388.1,121.9l1.4,3.9l4.1-1.4c0.6,0.9,1.3,1.7,2.1,2.3l-1.9,3.9l3.7,1.8
			l1.9-3.9c1,0.2,2,0.3,3.1,0.2l1.4,4.1l3.9-1.4l-1.4-4.1c0.9-0.6,1.7-1.3,2.3-2.1l3.9,1.9l1.8-3.7l-3.9-1.9c0.2-1,0.3-2,0.2-3.1
			l4.1-1.4l-1.4-3.9l-4.1,1.4c-0.6-0.9-1.3-1.7-2.1-2.3l1.9-3.9l-3.7-1.8l-1.9,3.9c-1-0.2-2-0.3-3.1-0.2l-1.4-4.1l-3.9,1.4l1.4,4.1
			c-0.9,0.6-1.7,1.3-2.3,2.1l-3.9-1.9l-1.8,3.7l3.9,1.9c-0.2,1-0.3,2-0.2,3.1L388.1,121.9z"/>
	</g>
</g>
<g id="DESIGNED_BY_FREEPIK" class="st0">
</g>
</svg>
